<svg viewBox="0 0 462.34 156.29" xmlns="http://www.w3.org/2000/svg" xmlns:xlink="http://www.w3.org/1999/xlink"><linearGradient id="a"><stop offset="0" stop-color="#387337"/><stop offset=".05" stop-color="#437c37"/><stop offset=".238" stop-color="#669938"/><stop offset=".427" stop-color="#82b138"/><stop offset=".617" stop-color="#96c138"/><stop offset=".808" stop-color="#a2cb39"/><stop offset="1" stop-color="#a6ce39"/></linearGradient><linearGradient id="b" gradientTransform="rotate(180 1761.912 342.808)" gradientUnits="userSpaceOnUse" x1="3116.479" x2="3145.339" xlink:href="#a" y1="593.017" y2="590.492"/><linearGradient id="c" gradientUnits="userSpaceOnUse" x1="366.75" x2="417.217" xlink:href="#a" y1="51.646" y2="51.646"/><linearGradient id="d" gradientUnits="userSpaceOnUse" x1="356.579" x2="385.475" xlink:href="#a" y1="63.367" y2="60.839"/><linearGradient id="e" gradientTransform="rotate(180 457.654 43.76)" gradientUnits="userSpaceOnUse" x1="518.133" x2="568.598" xlink:href="#a" y1="-16.793" y2="-16.793"/><path clip-rule="evenodd" d="M308.03 42.68c-10.3.37-20.51 5.95-29.25-5.05 9.59-5.63 18.73-10.16 28.07 1.16-6.99-2.52-14.39-3.14-17.39-.42 5.23-2.43 21.95-.96 22.29 7.71-.78.14-.21-3.53-3.72-3.4z" fill="#a6ce39" fill-rule="evenodd"/><path clip-rule="evenodd" d="M309.27 40.13c1.03-6.35 7.29-11.27 2.21-18.33-4.44 4.26-8.23 8.44-3.61 15.12.08-4.05 1.11-7.14 2.78-8.86-1.91 2.54-2.91 7.96-1.99 10.04z" fill="#a6ce39" fill-rule="evenodd"/><path d="M365.04 87.2h13.94c1.12 0 2.03.91 2.03 2.03s-.91 2.03-2.03 2.03h-13.94c-1.12 0-2.03-.91-2.03-2.03s.91-2.03 2.03-2.03zm17.77-21.82h16.32c1.31 0 2.38.91 2.38 2.03s-1.07 2.03-2.38 2.03h-16.32c-1.31 0-2.38-.91-2.38-2.03s1.07-2.03 2.38-2.03zm-26.55 7.52h28.96c1.12 0 2.03.91 2.03 2.03s-.91 2.03-2.03 2.03h-28.96c-1.12 0-2.03-.91-2.03-2.03s.91-2.03 2.03-2.03zm20.65 7.19h28.96c1.12 0 2.03.91 2.03 2.03s-.91 2.03-2.03 2.03h-28.96c-1.12 0-2.03-.91-2.03-2.03s.91-2.03 2.03-2.03zM83.94 105.85V77.67c0-5.68.84-10.45 2.51-14.31s3.97-6.95 6.88-9.28c2.76-2.18 6.01-3.78 9.72-4.81 3.71-1.02 7.54-1.53 11.47-1.53h2.18v15.51h-5.02c-4.23 0-7.36 1.02-9.39 3.06-2.04 2.04-3.06 5.24-3.06 9.61v29.93zm76.29-3.5v-3.71c-2.62 4.08-6.15 6.63-10.59 7.65s-8.85.66-13.22-1.09-8.12-4.99-11.25-9.72-4.7-10.96-4.7-18.68c0-9.03 1.63-15.96 5.78-21.56s11.75-8.8 20.97-8.8c6.99 0 12.82 1.08 17.37 4.36 5.74 4.13 10.48 10.49 10.48 22.29v30.8c0 10.19-4.23 17.87-10.13 21.81-5.85 3.91-11.28 4.83-18.27 4.62-13.03-.39-22.23-6.52-24.9-18.79h15.36c1.16 2.04 2.92 3.82 5.33 4.91 2.4 1.09 5.42 1.17 7.82.66s4.87-1.87 6.84-4.2c1.98-2.33 2.82-5.89 3.11-10.55zm-24.9-25.12c0 10.05 2.91 15.62 8.74 16.71 5.82 1.09 10.12-.25 12.89-4.04 1.31-1.6 2.26-4.11 2.84-7.54.58-3.42.62-6.81.11-10.16s-1.71-6.33-3.6-8.96c-1.89-2.62-4.66-3.93-8.3-3.93-4.95 0-8.3 1.82-10.05 5.46-1.76 3.65-2.63 7.8-2.63 12.46zm85.1 26.22c-3.06 1.6-6.3 2.58-9.72 2.95-3.42.36-5.62.48-8.24.48-5.24 0-10.65-1.35-14.59-4.19-3.93-2.84-5.9-7.54-5.9-14.09 0-6.12 1.78-10.49 5.35-13.11s8.12-4.37 13.65-5.24c.83-.11 4.81-.73 6.12-.87 6.41-.87 9.61-2.76 9.61-5.68 0-2.18-1.05-3.53-3.39-4.26-2.25-.7-4.34-.98-6.23-.98-2.04 0-3.86.29-5.46.87s-2.77 1.68-3.5 3.28h-14.64c.58-4.51 2.62-8.23 6.12-11.14 3.93-3.35 9.54-5.02 16.82-5.02 8.15 0 14.27 1.39 18.35 4.15 4.22 2.92 6.33 6.99 6.33 12.23v19.88c0 5.83-1.06 10.38-3.17 13.65-2.08 3.26-4.6 5.63-7.51 7.09zm-3.49-26.87c-2.04 1.02-4.88 1.97-8.52 2.84l-5.02 1.09c-2.66.59-4.53 1.68-5.68 2.84-1.12 1.18-1.53 3.21-1.53 4.81 0 2.18.66 3.93 1.97 5.24 1.31 1.17 3.2 1.75 5.68 1.75 4.07 0 7.28-1.16 9.61-3.5 2.33-2.33 3.5-5.53 3.5-9.61v-5.46zm72.65 29.27h-7.65c-2.18 0-3.97-.69-5.35-2.08-1.39-1.38-2.08-3.17-2.08-5.35V68.71c0-3.5-1.06-6.04-3.17-7.65-2.11-1.6-4.48-2.4-7.1-2.4s-4.95.8-6.99 2.4-3.06 4.15-3.06 7.65v37.14H238.9V71.77c0-9.9 2.97-16.83 8.14-20.18s10.5-4.86 16.76-5.16c6.41 0 13.47 1.74 17.43 4.67 5.1 3.78 8.35 9.77 8.35 20.67v34.08zm9.31-58.11h7.86c2.04 0 3.78.73 5.24 2.18 1.45 1.46 2.18 3.21 2.18 5.24v50.68H298.9zm113.94 20.65l10.18-17.69c1.13-1.95 2.89-2.92 5.26-2.92h10.35L420.3 76.64l18.33 30.23h-13.75l-12.05-20.44V68.39zm-63.02 15.96l-10.73 18.59c-1.13 1.96-2.89 2.94-5.26 2.94h-10.35l18.33-29.05-18.33-30.43h13.75l12.6 21.49v16.46zm6.93-7.52" fill="#549b4e"/><path d="M406.34 98.17s-5.25 4.32-17.72 6.89c0 0-.63.15-1.27.06-.46-.06-.89-.22-1.28-.75l-7.1-9.17s-1.59-1.9.48-2.34c0 0 13.56-2.25 25.9-10.94 0 0 3.3 7.34.99 16.25z" fill="url(#b)"/><path d="M406.33 98.17c36.39-31.35-30.12-53.24-30.07-92.26 0-.7-.85-1.06-1.34-.56-31.92 33.02 40.59 57.03 31.41 92.82z" fill="url(#c)"/><path d="M357.58 57.79s6.99-5.08 17.72-6.9c0 0 .9-.17 1.57.01.39.1.68.29.98.68l7.1 9.17s.73.75.59 1.44c-.07.35-.34.79-1.08.91 0 0-13.56 2.25-25.9 10.94.02 0-3.28-7.34-.98-16.25z" fill="url(#d)"/><path d="M357.6 57.78c-36.39 31.35 30.12 53.24 30.07 92.26 0 .7.85 1.06 1.34.56 31.91-33.01-40.59-57.03-31.41-92.82z" fill="url(#e)"/><path d="M39.26 107.67c-22.51 0-35.74-14.83-35.74-39.4 0-21.99 12.5-39.82 36.59-39.82 24.41 0 36.59 17.83 36.59 39.82 0 24.68-14.2 39.4-37.44 39.4zm22.17-39.4C61.43 50.79 52.34 42 40.1 42c-13.93 0-21.32 11.76-21.32 26.27s7.21 26.08 21.14 26.08c14.43 0 21.51-11.58 21.51-26.08z" fill="#549b4e"/><path d="M211.33 123.62c0 .85-.24 1.58-.72 2.19s-1.17 1.02-2.07 1.26l3.22 4.89h-2.85l-2.65-4.68h-1.67v4.68h-2.19v-12.02h4.44c1.42 0 2.52.34 3.31 1.02.79.65 1.18 1.54 1.18 2.66zm-4.69 2.18c.8 0 1.41-.18 1.81-.55.41-.36.61-.84.61-1.44s-.19-1.08-.56-1.44-.93-.55-1.67-.55h-2.26v3.98zm14.66-.4c.15.52.23.99.23 1.43 0 .43-.02.82-.07 1.17h-5.81c.02.73.2 1.32.54 1.78.33.46.84.68 1.52.68.9 0 1.44-.39 1.61-1.18h2.2c-.15.9-.56 1.61-1.24 2.13-.7.54-1.56.81-2.57.81-1.18 0-2.18-.43-2.98-1.3-.83-.9-1.24-2.06-1.24-3.46 0-1.44.41-2.6 1.24-3.48.79-.84 1.78-1.26 2.98-1.26 1.25 0 2.22.44 2.91 1.32.29.38.52.84.68 1.36zm-3.58-.95c-.62 0-1.1.2-1.44.6s-.55.92-.61 1.55h3.83c0-.97-.31-1.63-.93-1.96-.24-.13-.52-.19-.85-.19zm7.64 4.76c.02.85.65 1.28 1.87 1.28.47 0 .85-.1 1.16-.31.3-.2.45-.44.45-.71s-.09-.48-.28-.63c-.18-.15-.48-.28-.87-.41l-1.96-.7c-1.46-.51-2.18-1.33-2.18-2.48 0-.77.34-1.38 1.03-1.84s1.6-.69 2.76-.69 2.04.25 2.67.76c.62.51.95 1.14.97 1.91h-2.06c-.02-.3-.17-.53-.43-.7s-.63-.26-1.11-.26-.86.1-1.12.29-.4.41-.4.66c0 .43.36.75 1.09.96l2.13.8c.7.23 1.24.53 1.62.9.38.36.57.84.57 1.42 0 .74-.35 1.38-1.06 1.93-.73.57-1.69.85-2.89.85s-2.16-.26-2.89-.79-1.1-1.26-1.11-2.21h2.04zm14.52 1.11c-.57 1.2-1.48 1.8-2.74 1.8-1.59 0-2.64-.62-3.15-1.87-.18-.43-.28-.96-.28-1.57v-5.74h2.18v5.52c0 .59.14 1.03.43 1.32s.63.44 1.05.44c.41 0 .76-.06 1.05-.18.28-.12.53-.29.74-.53.46-.53.7-1.24.72-2.13v-4.44h2.18v9.02h-2.18zm5.63-11.07h2.19v12.7h-2.19zm10.7 12.48c-.81.32-1.46.48-1.93.48s-.88-.05-1.23-.17-.66-.28-.94-.5c-.57-.51-.85-1.2-.85-2.09v-5.04H250v-1.46h1.26v-2.37h2.19v2.37h2.44v1.46h-2.44v4.96c0 .74.35 1.11 1.05 1.11.36 0 .82-.1 1.39-.3zm3.47-2.52c.02.85.65 1.28 1.87 1.28.47 0 .85-.1 1.16-.31.3-.2.45-.44.45-.71s-.09-.48-.28-.63c-.18-.15-.48-.28-.87-.41l-1.96-.7c-1.46-.51-2.18-1.33-2.18-2.48 0-.77.34-1.38 1.03-1.84s1.6-.69 2.76-.69 2.04.25 2.67.76c.62.51.95 1.14.97 1.91h-2.06c-.02-.3-.17-.53-.43-.7s-.63-.26-1.11-.26-.86.1-1.12.29-.4.41-.4.66c0 .43.36.75 1.09.96l2.13.8c.7.23 1.24.53 1.62.9.38.36.57.84.57 1.42 0 .74-.35 1.38-1.06 1.93-.73.57-1.69.85-2.89.85s-2.16-.26-2.89-.79-1.1-1.26-1.11-2.21h2.04zm14.38-9.28l2.65 4.8 2.78-4.8h2.57l-4.28 7.05v4.96h-2.18v-4.96l-4.13-7.05zm12.06 2.78c.6 0 1.17.1 1.7.29s.99.48 1.37.88c.85.86 1.28 2.06 1.28 3.59 0 1.51-.43 2.69-1.28 3.56-.77.79-1.79 1.18-3.07 1.18s-2.32-.39-3.11-1.18c-.85-.85-1.28-2.04-1.28-3.56 0-1.54.43-2.74 1.28-3.59.77-.78 1.81-1.17 3.11-1.17zm2.16 4.74c0-.95-.19-1.66-.56-2.14-.37-.47-.89-.71-1.55-.71s-1.2.24-1.62.71c-.42.48-.63 1.19-.63 2.14s.19 1.66.56 2.14c.38.48.89.71 1.55.71s1.19-.24 1.61-.71c.43-.47.64-1.19.64-2.14zm10.76 2.87c-.57 1.2-1.48 1.8-2.74 1.8-1.59 0-2.64-.62-3.15-1.87-.18-.43-.28-.96-.28-1.57v-5.74h2.18v5.52c0 .59.14 1.03.43 1.32s.63.44 1.05.44c.41 0 .76-.06 1.05-.18.28-.12.53-.29.74-.53.46-.53.7-1.24.72-2.13v-4.44h2.18v9.02h-2.18zm12.5-.28h4.94v1.91h-7.13v-12.02h2.19zm10.5-7.33c.6 0 1.17.1 1.7.29s.99.48 1.37.88c.85.86 1.28 2.06 1.28 3.59 0 1.51-.43 2.69-1.28 3.56-.77.79-1.79 1.18-3.07 1.18s-2.32-.39-3.11-1.18c-.85-.85-1.28-2.04-1.28-3.56 0-1.54.43-2.74 1.28-3.59.78-.78 1.81-1.17 3.11-1.17zm2.17 4.74c0-.95-.19-1.66-.56-2.14-.37-.47-.89-.71-1.55-.71s-1.2.24-1.62.71c-.42.48-.63 1.19-.63 2.14s.19 1.66.56 2.14c.38.48.89.71 1.55.71s1.19-.24 1.61-.71c.43-.47.64-1.19.64-2.14zm5.79-4.5l2.06 6.83 2.07-6.83h2.52l-3.35 9h-2.46l-3.35-9zm15.56 2.45c.15.52.23.99.23 1.43 0 .43-.02.82-.07 1.17h-5.81c.02.73.2 1.32.54 1.78.33.46.84.68 1.52.68.9 0 1.44-.39 1.61-1.18h2.2c-.15.9-.56 1.61-1.24 2.13-.7.54-1.56.81-2.57.81-1.18 0-2.18-.43-2.98-1.3-.83-.9-1.24-2.06-1.24-3.46 0-1.44.41-2.6 1.24-3.48.79-.84 1.78-1.26 2.98-1.26 1.25 0 2.22.44 2.91 1.32.3.38.53.84.68 1.36zm-3.58-.95c-.62 0-1.1.2-1.44.6s-.55.92-.61 1.55h3.83c0-.97-.31-1.63-.93-1.96-.23-.13-.51-.19-.85-.19zM71.88 20.55c-.2-1.05-.94-1.57-2.22-1.57-.63 0-1.12.13-1.47.38s-.53.56-.53.92.11.64.34.84.58.39 1.06.57l2.61 1.02c.89.35 1.57.78 2.05 1.3.48.53.72 1.18.72 1.97 0 1.09-.41 1.95-1.22 2.58-.81.64-1.97.95-3.48.95-1.33 0-2.41-.33-3.24-.98-.93-.72-1.41-1.73-1.46-3.04h2.17c0 .99.51 1.61 1.54 1.87.31.09.72.13 1.22.13s.98-.13 1.41-.38.65-.59.65-1.02-.12-.75-.35-.98c-.24-.23-.62-.44-1.15-.64l-2.39-.94c-.93-.36-1.64-.78-2.13-1.26s-.74-1.15-.74-2c0-1 .39-1.79 1.17-2.37.79-.61 1.86-.91 3.21-.91s2.4.31 3.13.93 1.16 1.5 1.27 2.62h-2.17zm11.48 7.07c-.57 1.2-1.48 1.8-2.74 1.8-1.59 0-2.64-.62-3.15-1.87-.18-.43-.28-.96-.28-1.57v-5.74h2.18v5.52c0 .59.14 1.03.43 1.32s.63.44 1.05.44c.41 0 .76-.06 1.05-.18.28-.12.53-.29.74-.53.46-.53.7-1.24.72-2.13v-4.44h2.18v9.02h-2.18zm7.62-6.15c.57-.97 1.43-1.46 2.59-1.46 1.11 0 2.06.42 2.85 1.26.84.89 1.26 2.05 1.26 3.48 0 1.44-.43 2.61-1.28 3.5-.79.84-1.73 1.26-2.83 1.26s-1.9-.33-2.41-.98v5.11h-2.19V20.25h1.8zm2.21 6.06c.26 0 .53-.06.8-.17.28-.11.53-.28.75-.52.49-.52.74-1.21.74-2.08s-.21-1.55-.64-2.05c-.43-.49-.94-.74-1.56-.74s-1.11.18-1.5.53-.6.85-.62 1.51v1.61c0 .58.2 1.05.61 1.41.39.33.86.5 1.42.5zm9.09-6.06c.57-.97 1.43-1.46 2.59-1.46 1.11 0 2.06.42 2.85 1.26.84.89 1.26 2.05 1.26 3.48 0 1.44-.43 2.61-1.28 3.5-.79.84-1.73 1.26-2.83 1.26s-1.9-.33-2.41-.98v5.11h-2.19V20.25h1.8zm2.2 6.06c.26 0 .53-.06.8-.17.28-.11.53-.28.75-.52.49-.52.74-1.21.74-2.08s-.21-1.55-.64-2.05c-.43-.49-.94-.74-1.56-.74s-1.11.18-1.5.53-.6.85-.62 1.51v1.61c0 .58.2 1.05.61 1.41.4.33.87.5 1.42.5zm7.09-10.98h2.19v12.7h-2.19zm12.6 6.15c.15.52.23.99.23 1.43 0 .43-.02.82-.07 1.17h-5.81c.02.73.2 1.32.54 1.78.33.46.84.68 1.52.68.9 0 1.44-.39 1.61-1.18h2.2c-.15.9-.56 1.61-1.24 2.13-.7.54-1.56.81-2.57.81-1.18 0-2.18-.43-2.98-1.3-.83-.9-1.24-2.06-1.24-3.46 0-1.44.41-2.6 1.24-3.48.79-.84 1.78-1.26 2.98-1.26 1.25 0 2.22.44 2.91 1.32.3.38.53.84.68 1.36zm-3.58-.95c-.62 0-1.1.2-1.44.6s-.55.92-.61 1.55h3.83c0-.97-.31-1.63-.93-1.96-.23-.13-.51-.19-.85-.19zm14.43.21c.58-1.3 1.6-1.94 3.05-1.94 1.07 0 1.91.36 2.5 1.09.57.69.85 1.65.85 2.89v5.26h-2.2V24c0-.67-.16-1.17-.48-1.51s-.77-.51-1.35-.51-1.06.25-1.43.76-.57 1.27-.59 2.3v4.22h-2.18V24c0-.67-.16-1.17-.48-1.51s-.77-.51-1.35-.51-1.08.26-1.49.78-.63 1.3-.66 2.33v4.17h-2.19v-9h1.91l.24 1.56c.59-1.2 1.54-1.8 2.85-1.8.75 0 1.38.17 1.88.52s.87.81 1.12 1.42zm16.54.74c.15.52.23.99.23 1.43 0 .43-.02.82-.07 1.17h-5.81c.02.73.2 1.32.54 1.78.33.46.84.68 1.52.68.9 0 1.44-.39 1.61-1.18h2.2c-.15.9-.56 1.61-1.24 2.13-.7.54-1.56.81-2.57.81-1.18 0-2.18-.43-2.98-1.3-.83-.9-1.24-2.06-1.24-3.46 0-1.44.41-2.6 1.24-3.48.79-.84 1.78-1.26 2.98-1.26 1.25 0 2.22.44 2.91 1.32.3.38.53.84.68 1.36zm-3.58-.95c-.62 0-1.1.2-1.44.6s-.55.92-.61 1.55h3.83c0-.97-.31-1.63-.93-1.96-.23-.13-.52-.19-.85-.19zm8.57.06c.59-1.2 1.54-1.8 2.85-1.8 1.11 0 1.95.36 2.51 1.09s.84 1.69.84 2.89v5.26h-2.18v-5.26c0-.67-.16-1.17-.48-1.51s-.77-.51-1.35-.51-1.08.26-1.49.78-.63 1.3-.66 2.33v4.17h-2.19v-9h1.91zm14.46 7.22c-.81.32-1.46.48-1.93.48s-.88-.05-1.23-.17-.66-.28-.94-.5c-.57-.51-.85-1.2-.85-2.09v-5.04h-1.26v-1.46h1.26v-2.37h2.19v2.37h2.44v1.46h-2.44v4.96c0 .74.35 1.11 1.05 1.11.36 0 .82-.1 1.39-.3zm3.47-2.52c.02.85.65 1.28 1.87 1.28.47 0 .85-.1 1.16-.31.3-.2.45-.44.45-.71s-.09-.48-.28-.63c-.18-.15-.48-.28-.87-.41l-1.96-.7c-1.46-.51-2.18-1.33-2.18-2.48 0-.77.34-1.38 1.03-1.84s1.6-.69 2.76-.69 2.04.25 2.67.76c.62.51.95 1.14.97 1.91h-2.06c-.02-.3-.17-.53-.43-.7s-.63-.26-1.11-.26-.86.1-1.12.29-.4.41-.4.66c0 .43.36.75 1.09.96l2.13.8c.7.23 1.24.53 1.62.9s.57.84.57 1.42c0 .74-.35 1.38-1.06 1.93-.73.57-1.69.85-2.89.85s-2.16-.26-2.89-.79-1.1-1.26-1.11-2.21h2.04zm14.38-9.28l2.65 4.8 2.78-4.8h2.57l-4.28 7.05v4.96h-2.18v-4.96l-4.13-7.05zm12.06 2.78c.6 0 1.17.1 1.7.29s.99.48 1.37.88c.85.86 1.28 2.06 1.28 3.59 0 1.51-.43 2.69-1.28 3.56-.77.79-1.79 1.18-3.07 1.18s-2.32-.39-3.11-1.18c-.85-.85-1.28-2.04-1.28-3.56 0-1.54.43-2.74 1.28-3.59.77-.78 1.81-1.17 3.11-1.17zm2.16 4.74c0-.95-.19-1.66-.56-2.14-.37-.47-.89-.71-1.55-.71s-1.2.24-1.62.71c-.42.48-.63 1.19-.63 2.14s.19 1.66.56 2.14c.38.48.89.71 1.55.71s1.19-.24 1.61-.71c.43-.47.64-1.19.64-2.14zm10.76 2.87c-.57 1.2-1.48 1.8-2.74 1.8-1.59 0-2.64-.62-3.15-1.87-.18-.43-.28-.96-.28-1.57v-5.74h2.18v5.52c0 .59.14 1.03.43 1.32s.63.44 1.05.44c.41 0 .76-.06 1.05-.18.28-.12.53-.29.74-.53.46-.53.7-1.24.72-2.13v-4.44h2.18v9.02h-2.18zm8.71-10.39h9.63v1.89h-3.72v10.13h-2.18V19.12h-3.72v-1.89zm12.07 4.8c.54-1.3 1.36-1.94 2.44-1.94.21 0 .47.04.8.13l-.04 2.18c-.35-.07-.68-.11-1.02-.11-1.46 0-2.18 1.01-2.18 3.02v3.94h-2.19v-9.02h2.19zm11.5 5.59c-.57 1.2-1.48 1.8-2.74 1.8-1.59 0-2.64-.62-3.15-1.87-.18-.43-.28-.96-.28-1.57v-5.74h2.18v5.52c0 .59.14 1.03.43 1.32s.63.44 1.05.44c.41 0 .76-.06 1.05-.18.28-.12.53-.29.74-.53.46-.53.7-1.24.72-2.13v-4.44h2.18v9.02h-2.18zm6.85-1.11c.02.85.65 1.28 1.87 1.28.47 0 .85-.1 1.16-.31.3-.2.45-.44.45-.71s-.09-.48-.28-.63c-.18-.15-.48-.28-.87-.41l-1.96-.7c-1.46-.51-2.18-1.33-2.18-2.48 0-.77.34-1.38 1.03-1.84s1.6-.69 2.76-.69c1.15 0 2.04.25 2.67.76.62.51.95 1.14.97 1.91h-2.06c-.02-.3-.17-.53-.43-.7s-.63-.26-1.11-.26-.86.1-1.12.29-.4.41-.4.66c0 .43.36.75 1.09.96l2.13.8c.7.23 1.24.53 1.62.9s.57.84.57 1.42c0 .74-.35 1.38-1.06 1.93-.73.57-1.69.85-2.89.85s-2.16-.26-2.89-.79-1.1-1.26-1.11-2.21h2.04zm13.61 2.52c-.81.32-1.46.48-1.93.48s-.88-.05-1.23-.17-.66-.28-.94-.5c-.57-.51-.85-1.2-.85-2.09v-5.04h-1.26v-1.46h1.26v-2.37h2.19v2.37h2.44v1.46h-2.44v4.96c0 .74.35 1.11 1.05 1.11.36 0 .82-.1 1.39-.3zm1.39-.02c-.28-.27-.43-.62-.43-1.04s.14-.77.43-1.06.65-.43 1.09-.43.81.14 1.11.43c.3.28.44.64.44 1.06s-.15.77-.44 1.04c-.3.27-.67.41-1.11.41s-.81-.14-1.09-.41zm3.98 0c-.28-.27-.43-.62-.43-1.04s.14-.77.43-1.06.65-.43 1.09-.43.81.14 1.11.43c.3.28.44.64.44 1.06s-.15.77-.44 1.04c-.3.27-.67.41-1.11.41s-.81-.14-1.09-.41zm3.98 0c-.28-.27-.43-.62-.43-1.04s.14-.77.43-1.06.65-.43 1.09-.43.81.14 1.11.43c.3.28.44.64.44 1.06s-.15.77-.44 1.04c-.3.27-.67.41-1.11.41s-.81-.14-1.09-.41z" fill="#84b040"/><path d="M452.23 52.43c.52.51.77 1.18.77 2.02 0 .58-.14 1.09-.43 1.53s-.69.76-1.19.97l1.86 4.47h-1.97l-1.63-4.07h-1.89v4.07h-1.83v-9.75h4.09c.96-.01 1.7.25 2.22.76zm-4.48 3.3h2.01c.85 0 1.27-.43 1.27-1.29 0-.37-.1-.66-.3-.87s-.5-.31-.91-.31h-2.08v2.47z" fill="#549a4c"/><path d="M448.94 46.99c-5.27 0-9.55 4.29-9.55 9.55s4.29 9.55 9.55 9.55c5.27 0 9.55-4.29 9.55-9.55s-4.29-9.55-9.55-9.55zm7.69 9.55c0 4.24-3.45 7.69-7.69 7.69s-7.69-3.45-7.69-7.69 3.45-7.69 7.69-7.69 7.69 3.45 7.69 7.69z" fill="#549a4c"/><path clip-rule="evenodd" d="M308.03 42.68c-10.3.37-20.51 5.95-29.25-5.05 9.59-5.63 18.73-10.16 28.07 1.16-6.99-2.52-14.39-3.14-17.39-.42 5.23-2.43 21.95-.96 22.29 7.71-.78.14-.21-3.53-3.72-3.4z" fill="#a6ce39" fill-rule="evenodd"/><path clip-rule="evenodd" d="M309.27 40.13c1.03-6.35 7.29-11.27 2.21-18.33-4.44 4.26-8.23 8.44-3.61 15.12.08-4.05 1.11-7.14 2.78-8.86-1.91 2.54-2.91 7.96-1.99 10.04z" fill="#a6ce39" fill-rule="evenodd"/><path d="M365.04 87.2h13.94c1.12 0 2.03.91 2.03 2.03s-.91 2.03-2.03 2.03h-13.94c-1.12 0-2.03-.91-2.03-2.03s.91-2.03 2.03-2.03zm17.77-21.82h16.32c1.31 0 2.38.91 2.38 2.03s-1.07 2.03-2.38 2.03h-16.32c-1.31 0-2.38-.91-2.38-2.03s1.07-2.03 2.38-2.03zm-26.55 7.52h28.96c1.12 0 2.03.91 2.03 2.03s-.91 2.03-2.03 2.03h-28.96c-1.12 0-2.03-.91-2.03-2.03s.91-2.03 2.03-2.03zm20.65 7.19h28.96c1.12 0 2.03.91 2.03 2.03s-.91 2.03-2.03 2.03h-28.96c-1.12 0-2.03-.91-2.03-2.03s.91-2.03 2.03-2.03zM83.94 105.85V77.67c0-5.68.84-10.45 2.51-14.31s3.97-6.95 6.88-9.28c2.76-2.18 6.01-3.78 9.72-4.81 3.71-1.02 7.54-1.53 11.47-1.53h2.18v15.51h-5.02c-4.23 0-7.36 1.02-9.39 3.06-2.04 2.04-3.06 5.24-3.06 9.61v29.93zm76.29-3.5v-3.71c-2.62 4.08-6.15 6.63-10.59 7.65s-8.85.66-13.22-1.09-8.12-4.99-11.25-9.72-4.7-10.96-4.7-18.68c0-9.03 1.63-15.96 5.78-21.56s11.75-8.8 20.97-8.8c6.99 0 12.82 1.08 17.37 4.36 5.74 4.13 10.48 10.49 10.48 22.29v30.8c0 10.19-4.23 17.87-10.13 21.81-5.85 3.91-11.28 4.83-18.27 4.62-13.03-.39-22.23-6.52-24.9-18.79h15.36c1.16 2.04 2.92 3.82 5.33 4.91 2.4 1.09 5.42 1.17 7.82.66s4.87-1.87 6.84-4.2c1.98-2.33 2.82-5.89 3.11-10.55zm-24.9-25.12c0 10.05 2.91 15.62 8.74 16.71 5.82 1.09 10.12-.25 12.89-4.04 1.31-1.6 2.26-4.11 2.84-7.54.58-3.42.62-6.81.11-10.16s-1.71-6.33-3.6-8.96c-1.89-2.62-4.66-3.93-8.3-3.93-4.95 0-8.3 1.82-10.05 5.46-1.76 3.65-2.63 7.8-2.63 12.46zm85.1 26.22c-3.06 1.6-6.3 2.58-9.72 2.95-3.42.36-5.62.48-8.24.48-5.24 0-10.65-1.35-14.59-4.19-3.93-2.84-5.9-7.54-5.9-14.09 0-6.12 1.78-10.49 5.35-13.11s8.12-4.37 13.65-5.24c.83-.11 4.81-.73 6.12-.87 6.41-.87 9.61-2.76 9.61-5.68 0-2.18-1.05-3.53-3.39-4.26-2.25-.7-4.34-.98-6.23-.98-2.04 0-3.86.29-5.46.87s-2.77 1.68-3.5 3.28h-14.64c.58-4.51 2.62-8.23 6.12-11.14 3.93-3.35 9.54-5.02 16.82-5.02 8.15 0 14.27 1.39 18.35 4.15 4.22 2.92 6.33 6.99 6.33 12.23v19.88c0 5.83-1.06 10.38-3.17 13.65-2.08 3.26-4.6 5.63-7.51 7.09zm-3.49-26.87c-2.04 1.02-4.88 1.97-8.52 2.84l-5.02 1.09c-2.66.59-4.53 1.68-5.68 2.84-1.12 1.18-1.53 3.21-1.53 4.81 0 2.18.66 3.93 1.97 5.24 1.31 1.17 3.2 1.75 5.68 1.75 4.07 0 7.28-1.16 9.61-3.5 2.33-2.33 3.5-5.53 3.5-9.61v-5.46zm72.65 29.27h-7.65c-2.18 0-3.97-.69-5.35-2.08-1.39-1.38-2.08-3.17-2.08-5.35V68.71c0-3.5-1.06-6.04-3.17-7.65-2.11-1.6-4.48-2.4-7.1-2.4s-4.95.8-6.99 2.4-3.06 4.15-3.06 7.65v37.14H238.9V71.77c0-9.9 2.97-16.83 8.14-20.18s10.5-4.86 16.76-5.16c6.41 0 13.47 1.74 17.43 4.67 5.1 3.78 8.35 9.77 8.35 20.67v34.08zm9.31-58.11h7.86c2.04 0 3.78.73 5.24 2.18 1.45 1.46 2.18 3.21 2.18 5.24v50.68H298.9zm113.94 20.65l10.18-17.69c1.13-1.95 2.89-2.92 5.26-2.92h10.35L420.3 76.64l18.33 30.23h-13.75l-12.05-20.44V68.39zm-63.02 15.96l-10.73 18.59c-1.13 1.96-2.89 2.94-5.26 2.94h-10.35l18.33-29.05-18.33-30.43h13.75l12.6 21.49v16.46zm6.93-7.52" fill="#549b4e"/><path d="M406.34 98.17s-5.25 4.32-17.72 6.89c0 0-.63.15-1.27.06-.46-.06-.89-.22-1.28-.75l-7.1-9.17s-1.59-1.9.48-2.34c0 0 13.56-2.25 25.9-10.94 0 0 3.3 7.34.99 16.25z" fill="url(#b)"/><path d="M406.33 98.17c36.39-31.35-30.12-53.24-30.07-92.26 0-.7-.85-1.06-1.34-.56-31.92 33.02 40.59 57.03 31.41 92.82z" fill="url(#c)"/><path d="M357.58 57.79s6.99-5.08 17.72-6.9c0 0 .9-.17 1.57.01.39.1.68.29.98.68l7.1 9.17s.73.75.59 1.44c-.07.35-.34.79-1.08.91 0 0-13.56 2.25-25.9 10.94.02 0-3.28-7.34-.98-16.25z" fill="url(#d)"/><path d="M357.6 57.78c-36.39 31.35 30.12 53.24 30.07 92.26 0 .7.85 1.06 1.34.56 31.91-33.01-40.59-57.03-31.41-92.82z" fill="url(#e)"/><path d="M39.26 107.67c-22.51 0-35.74-14.83-35.74-39.4 0-21.99 12.5-39.82 36.59-39.82 24.41 0 36.59 17.83 36.59 39.82 0 24.68-14.2 39.4-37.44 39.4zm22.17-39.4C61.43 50.79 52.34 42 40.1 42c-13.93 0-21.32 11.76-21.32 26.27s7.21 26.08 21.14 26.08c14.43 0 21.51-11.58 21.51-26.08z" fill="#549b4e"/><g fill="#549a4c"><path d="M452.23 52.43c.52.51.77 1.18.77 2.02 0 .58-.14 1.09-.43 1.53s-.69.76-1.19.97l1.86 4.47h-1.97l-1.63-4.07h-1.89v4.07h-1.83v-9.75h4.09c.96-.01 1.7.25 2.22.76zm-4.48 3.3h2.01c.85 0 1.27-.43 1.27-1.29 0-.37-.1-.66-.3-.87s-.5-.31-.91-.31h-2.08v2.47z"/><path d="M448.94 46.99c-5.27 0-9.55 4.29-9.55 9.55s4.29 9.55 9.55 9.55c5.27 0 9.55-4.29 9.55-9.55s-4.29-9.55-9.55-9.55zm7.69 9.55c0 4.24-3.45 7.69-7.69 7.69s-7.69-3.45-7.69-7.69 3.45-7.69 7.69-7.69 7.69 3.45 7.69 7.69z"/></g></svg>